<svg width="177" height="50" viewBox="0 0 177 50" fill="none" xmlns="http://www.w3.org/2000/svg">
<path d="M44.4321 11.3854C45.1565 11.3854 45.8513 11.6774 46.3635 12.1971C46.8758 12.7168 47.1635 13.4216 47.1635 14.1566V29.3195C47.1663 31.7513 46.4308 34.1249 45.057 36.1175C43.6831 38.1102 41.7377 39.6252 39.4852 40.4564C37.2327 41.2877 34.7826 41.3948 32.4679 40.7634C30.1533 40.1319 28.0866 38.7925 26.5488 36.9272C25.0045 38.7866 22.9351 40.1206 20.6199 40.749C18.3047 41.3774 15.8552 41.27 13.6021 40.4414C11.349 39.6127 9.40067 38.1027 8.02019 36.1151C6.63971 34.1274 5.89352 31.758 5.88235 29.3265V14.1566C5.88327 13.4213 6.17182 12.7164 6.6846 12.1968C7.19739 11.6772 7.89248 11.3854 8.61721 11.3854V11.3854C9.34163 11.3854 10.0364 11.6774 10.5486 12.1971C11.0609 12.7168 11.3486 13.4216 11.3486 14.1566V29.2391C11.3239 30.7116 11.8118 32.1458 12.7264 33.2893C13.5352 34.2998 14.6315 35.0325 15.8658 35.3875C17.1002 35.7425 18.4124 35.7025 19.6235 35.2729C20.8346 34.8433 21.8856 34.0451 22.6331 32.9871C23.3805 31.9292 23.7881 30.663 23.8001 29.3614V14.1566C23.8001 13.4216 24.0879 12.7168 24.6002 12.1971C25.1124 11.6774 25.8071 11.3854 26.5316 11.3854V11.3854C26.8905 11.3849 27.2461 11.4563 27.5779 11.5953C27.9097 11.7344 28.2112 11.9384 28.4652 12.1958C28.7192 12.4532 28.9207 12.7588 29.0582 13.0953C29.1957 13.4317 29.2664 13.7924 29.2664 14.1566V29.3614C29.2539 30.1905 29.4092 31.0134 29.7226 31.7791C30.036 32.5449 30.5009 33.2373 31.0885 33.8135C31.7091 34.4279 32.4489 34.9046 33.2608 35.2134C34.0727 35.5223 34.9391 35.6565 35.8048 35.6075C36.6706 35.5585 37.5168 35.3275 38.2899 34.929C39.0629 34.5306 39.7459 33.9734 40.2954 33.2928C41.2108 32.1497 41.6988 30.7153 41.6731 29.2426V14.1566C41.6731 13.4216 41.9609 12.7168 42.4732 12.1971C42.9854 11.6774 43.6802 11.3854 44.4046 11.3854H44.4321Z" fill="#2E2525"/>
<path d="M88.9994 38.3912V26.5096C88.9622 22.6746 90.3649 18.9689 92.9225 16.1448C95.8687 12.9694 99.4451 11.3805 103.652 11.3782C107.549 11.3791 111.286 12.9499 114.042 15.7454C116.798 18.5408 118.347 22.3322 118.349 26.286V38.3842C118.348 39.1195 118.06 39.8243 117.547 40.3439C117.034 40.8635 116.339 41.1554 115.614 41.1554V41.1554C114.89 41.1554 114.195 40.8634 113.683 40.3437C113.171 39.824 112.883 39.1192 112.883 38.3842V26.293C112.898 25.0735 112.67 23.8635 112.212 22.7357C111.755 21.6079 111.077 20.5855 110.22 19.7302C109.362 18.8474 108.339 18.1459 107.212 17.6661C106.084 17.1863 104.874 16.9376 103.652 16.9345C102.442 16.9155 101.241 17.1482 100.123 17.6182C99.0054 18.0882 97.9943 18.7856 97.1523 19.6673C96.284 20.5315 95.5979 21.5656 95.1355 22.707C94.673 23.8483 94.444 25.0731 94.4622 26.307V38.4052C94.4622 39.1401 94.1744 39.845 93.6622 40.3647C93.1499 40.8844 92.4552 41.1763 91.7308 41.1763C91.3709 41.1763 91.0146 41.1042 90.6823 40.9641C90.35 40.8239 90.0483 40.6186 89.7945 40.3598C89.5407 40.1009 89.3398 39.7938 89.2033 39.456C89.0669 39.1181 88.9975 38.7563 88.9994 38.3912V38.3912Z" fill="#2E2525"/>
<path d="M128.948 11.3854C129.672 11.3854 130.367 11.6774 130.879 12.1971C131.391 12.7168 131.679 13.4216 131.679 14.1566V38.3914C131.679 39.1264 131.391 39.8312 130.879 40.3509C130.367 40.8706 129.672 41.1626 128.948 41.1626C128.223 41.1626 127.529 40.8706 127.016 40.3509C126.504 39.8312 126.216 39.1264 126.216 38.3914V14.1566C126.216 13.4216 126.504 12.7168 127.016 12.1971C127.529 11.6774 128.223 11.3854 128.948 11.3854V11.3854Z" fill="#2E2525"/>
<path d="M167.126 11.3853C167.584 11.3849 168.034 11.5018 168.435 11.7251C168.836 11.9484 169.176 12.2709 169.421 12.6626C169.667 13.0544 169.811 13.5027 169.84 13.9661C169.87 14.4295 169.783 14.8928 169.589 15.3132L158.976 38.3774C158.15 40.2225 156.728 41.1462 154.712 41.1485C153.805 41.1919 152.906 40.9504 152.139 40.4571C151.372 39.9637 150.773 39.2424 150.424 38.3913L139.822 15.3272C139.632 14.9033 139.55 14.438 139.582 13.9735C139.614 13.5091 139.76 13.0602 140.007 12.6676C140.254 12.2749 140.593 11.951 140.995 11.7253C141.396 11.4995 141.847 11.3791 142.306 11.3748C142.826 11.3773 143.335 11.5292 143.774 11.8131C144.213 12.0969 144.564 12.5011 144.786 12.9788L154.023 33.0446C154.084 33.1826 154.183 33.2998 154.308 33.382C154.433 33.4642 154.579 33.508 154.728 33.508C154.877 33.508 155.023 33.4642 155.148 33.382C155.273 33.2998 155.371 33.1826 155.432 33.0446L164.674 12.9648C164.893 12.4896 165.242 12.0876 165.679 11.806C166.115 11.5244 166.622 11.3749 167.14 11.3748L167.126 11.3853Z" fill="#2E2525"/>
<path d="M82.7545 26.2757C82.7543 22.8661 81.6005 19.5599 79.4861 16.9099C77.3716 14.2598 74.4246 12.4264 71.1377 11.7162C67.8507 11.0061 64.4232 11.4621 61.4279 13.0082C58.4326 14.5542 56.0512 17.0965 54.6818 20.2102C53.3123 23.3238 53.0378 26.82 53.9042 30.1143C54.7705 33.4086 56.7252 36.3014 59.4414 38.309C62.1577 40.3167 65.4709 41.3175 68.8272 41.1442C72.1835 40.9709 75.3794 39.634 77.8807 37.3569C78.2865 36.9758 78.5698 36.4796 78.6939 35.9328C78.8179 35.3861 78.777 34.8141 78.5764 34.2913C78.3757 33.7685 78.0247 33.319 77.5689 33.0013C77.1132 32.6837 76.5737 32.5124 76.0207 32.51C75.3273 32.5198 74.6612 32.7857 74.147 33.2578C73.0002 34.2809 71.6198 34.9974 70.1311 35.3424C68.6423 35.6874 67.0922 35.65 65.6213 35.2335C64.1504 34.8171 62.8052 34.0347 61.7077 32.9575C60.6101 31.8802 59.795 30.5421 59.336 29.0643H80.0025C80.7321 29.0718 81.4349 28.7853 81.9566 28.2678C82.4783 27.7502 82.7765 27.0439 82.7855 26.3036L82.7545 26.2757ZM59.3326 23.48C59.9173 21.5875 61.0822 19.9338 62.6577 18.7597C64.2331 17.5857 66.1369 16.9525 68.0917 16.9525C70.0465 16.9525 71.9503 17.5857 73.5258 18.7597C75.1012 19.9338 76.2662 21.5875 76.8508 23.48H59.3326Z" fill="#2E2525"/>
<path d="M128.948 7.3316C130.943 7.3316 132.561 5.69037 132.561 3.6658C132.561 1.64123 130.943 0 128.948 0C126.952 0 125.334 1.64123 125.334 3.6658C125.334 5.69037 126.952 7.3316 128.948 7.3316Z" fill="#2E2525"/>
</svg>
